<svg width="196" height="146" viewBox="0 0 196 146" fill="none" xmlns="http://www.w3.org/2000/svg">
<path d="M195.838 128.227H0.161865V128.325H195.838V128.227Z" fill="#EBEBEB"/>
<path d="M176.231 134.524H163.269V134.622H176.231V134.524Z" fill="#EBEBEB"/>
<path d="M158.343 134.524H130.631V134.622H158.343V134.524Z" fill="#EBEBEB"/>
<path d="M115.349 130.893H107.839V130.991H115.349V130.893Z" fill="#EBEBEB"/>
<path d="M34.1115 131.551H20.692V131.649H34.1115V131.551Z" fill="#EBEBEB"/>
<path d="M61.9958 131.551H37.595V131.649H61.9958V131.551Z" fill="#EBEBEB"/>
<path d="M88.271 133.203H73.8653V133.301H88.271V133.203Z" fill="#EBEBEB"/>
<path d="M92.9123 110.774H17.346C16.754 110.773 16.1866 110.537 15.7684 110.118C15.3502 109.699 15.1153 109.131 15.1153 108.539V2.31442C15.1204 1.72584 15.3576 1.16305 15.7753 0.748313C16.1929 0.333573 16.7574 0.100374 17.346 0.0993652H92.9123C93.5049 0.0993652 94.0733 0.334798 94.4924 0.753871C94.9115 1.17294 95.1469 1.74133 95.1469 2.33399V108.539C95.1469 109.132 94.9115 109.7 94.4924 110.119C94.0733 110.538 93.5049 110.774 92.9123 110.774ZM17.346 0.177636C16.78 0.178673 16.2375 0.404254 15.8376 0.804867C15.4377 1.20548 15.2131 1.74839 15.2131 2.31442V108.539C15.2131 109.105 15.4377 109.648 15.8376 110.049C16.2375 110.449 16.78 110.675 17.346 110.676H92.9123C93.4787 110.675 94.0216 110.45 94.4221 110.049C94.8226 109.649 95.048 109.106 95.0491 108.539V2.31442C95.048 1.74803 94.8226 1.20513 94.4221 0.804628C94.0216 0.404127 93.4787 0.178671 92.9123 0.177636H17.346Z" fill="#EBEBEB"/>
<path d="M177.566 110.774H101.996C101.403 110.773 100.836 110.537 100.417 110.118C99.9979 109.699 99.7621 109.132 99.7611 108.539V2.31442C99.7672 1.72548 100.005 1.1627 100.424 0.748068C100.842 0.333437 101.407 0.100363 101.996 0.0993652H177.566C178.154 0.101402 178.717 0.335057 179.134 0.749687C179.551 1.16432 179.788 1.72651 179.793 2.31442V108.539C179.793 109.131 179.558 109.698 179.141 110.117C178.724 110.535 178.157 110.772 177.566 110.774ZM101.996 0.177636C101.429 0.178671 100.886 0.404127 100.486 0.804628C100.085 1.20513 99.8599 1.74803 99.8589 2.31442V108.539C99.8599 109.106 100.085 109.649 100.486 110.049C100.886 110.45 101.429 110.675 101.996 110.676H177.566C178.132 110.675 178.675 110.45 179.076 110.049C179.476 109.649 179.702 109.106 179.703 108.539V2.31442C179.702 1.74803 179.476 1.20513 179.076 0.804628C178.675 0.404127 178.132 0.178671 177.566 0.177636H101.996Z" fill="#EBEBEB"/>
<path d="M29.8419 54.1921L82.9484 54.1921V8.18082L29.8419 8.18082L29.8419 54.1921Z" fill="#E6E6E6"/>
<path d="M28.6564 54.1921L81.7629 54.1921V8.18082L28.6564 8.18082L28.6564 54.1921Z" fill="#F5F5F5"/>
<path d="M79.6454 52.5484V9.82446L30.7772 9.82446V52.5484H79.6454Z" fill="#FAFAFA"/>
<path d="M60.0469 52.5484L68.9032 9.82446H50.3766L41.5242 52.5484H60.0469Z" fill="white"/>
<path d="M31.6697 52.5521L31.6697 9.82812H30.7774L30.7774 52.5521H31.6697Z" fill="#E6E6E6"/>
<path d="M29.533 44.8894L80.8863 44.8894V42.6822L29.533 42.6822V44.8894Z" fill="#F5F5F5"/>
<path d="M80.4838 125.901H88.9644V89.1255H80.4838V125.901Z" fill="#F0F0F0"/>
<path d="M25.1029 128.227H87.3397V125.899L25.1029 125.899V128.227Z" fill="#F0F0F0"/>
<path d="M80.4834 89.1211H23.4711V125.896H80.4834V89.1211Z" fill="#F5F5F5"/>
<path d="M77.1523 93.6492H26.8048V105.711H77.1523V93.6492Z" fill="#F0F0F0"/>
<path d="M77.1523 109.31H26.8048V121.372H77.1523V109.31Z" fill="#F0F0F0"/>
<path d="M38.4086 100.504H65.5489C65.7676 100.503 65.977 100.416 66.1317 100.261C66.2863 100.107 66.3736 99.8972 66.3747 99.6786C66.3737 99.4595 66.2865 99.2497 66.1319 99.0944C65.9774 98.9391 65.768 98.8509 65.5489 98.8489H38.4086C38.1896 98.8509 37.9801 98.9391 37.8256 99.0944C37.6711 99.2497 37.5839 99.4595 37.5829 99.6786C37.5839 99.8972 37.6712 100.107 37.8259 100.261C37.9805 100.416 38.1899 100.503 38.4086 100.504Z" fill="#F5F5F5"/>
<path d="M38.4086 116.167H65.5489C65.7676 116.166 65.977 116.079 66.1317 115.924C66.2863 115.77 66.3736 115.56 66.3747 115.342C66.3747 115.122 66.2878 114.912 66.1331 114.756C65.9783 114.601 65.7683 114.513 65.5489 114.512H38.4086C38.1893 114.513 37.9792 114.601 37.8245 114.756C37.6697 114.912 37.5829 115.122 37.5829 115.342C37.5839 115.56 37.6712 115.77 37.8259 115.924C37.9805 116.079 38.1899 116.166 38.4086 116.167Z" fill="#F5F5F5"/>
<path d="M169.078 32.2295C173.907 30.8989 175.558 22.1365 163.356 18.5596C166.049 27.3728 160.66 34.5385 169.078 32.2295Z" fill="#EBEBEB"/>
<path d="M170.146 36.0346C173.954 31.9215 170.353 22.6151 156.64 26.4191C164.397 33.2051 163.512 43.2081 170.146 36.0346Z" fill="#E0E0E0"/>
<path d="M166.389 37.0911C163.203 33.9368 167.766 22.9593 178.286 28.0469C172.325 33.7568 171.965 42.5896 166.389 37.0911Z" fill="#FAFAFA"/>
<path d="M163.21 43.2326H172.482L173.182 36.9592H162.514L163.21 43.2326Z" fill="#E6E6E6"/>
<path d="M162.409 38.0841H173.288C173.472 38.0841 173.648 38.0111 173.778 37.8812C173.908 37.7513 173.981 37.5751 173.981 37.3914C173.981 37.2077 173.908 37.0315 173.778 36.9016C173.648 36.7717 173.472 36.6987 173.288 36.6987H162.409C162.225 36.6987 162.049 36.7717 161.919 36.9016C161.789 37.0315 161.716 37.2077 161.716 37.3914C161.716 37.5751 161.789 37.7513 161.919 37.8812C162.049 38.0111 162.225 38.0841 162.409 38.0841Z" fill="#E6E6E6"/>
<path d="M85.2056 117.604V106.978H94.054V96.3571H102.906V85.7318H111.755V75.1066H120.607V64.4853H129.456V53.8601H138.308V43.2349H147.161H195.837V128.229H85.2056H76.3532V117.604H85.2056Z" fill="#FAFAFA"/>
<path d="M133.883 117.604V106.978H142.735V96.3571H151.584V85.7318H160.436V75.1066H169.284V64.4853H178.137V53.8601H186.985V43.2349H195.838V53.8601V128.229H133.883H125.034V117.604H133.883Z" fill="#E0E0E0"/>
<path d="M125.034 117.603H75.8335V120.789H125.034V117.603Z" fill="#EBEBEB"/>
<path d="M133.888 106.978H84.6867V110.164H133.888V106.978Z" fill="#EBEBEB"/>
<path d="M142.736 96.3569H93.5348V99.5425H142.736V96.3569Z" fill="#EBEBEB"/>
<path d="M151.587 85.731H102.387V88.9166H151.587V85.731Z" fill="#EBEBEB"/>
<path d="M160.436 75.1069H111.235V78.2925H160.436V75.1069Z" fill="#EBEBEB"/>
<path d="M169.289 64.4849H120.088V67.6705H169.289V64.4849Z" fill="#EBEBEB"/>
<path d="M178.138 53.8599H128.937V57.0455H178.138V53.8599Z" fill="#EBEBEB"/>
<path d="M186.991 43.2349H137.79V46.4205H186.991V43.2349Z" fill="#EBEBEB"/>
<path d="M98.0003 145.901C139.907 145.901 173.88 143.917 173.88 141.471C173.88 139.024 139.907 137.041 98.0003 137.041C56.0933 137.041 22.1209 139.024 22.1209 141.471C22.1209 143.917 56.0933 145.901 98.0003 145.901Z" fill="#F5F5F5"/>
<path d="M131.148 40.6567C131.077 41.8307 130.94 42.9069 130.788 44.0223C130.635 45.1377 130.428 46.2295 130.193 47.3253C129.735 49.5431 129.073 51.7139 128.217 53.81L127.86 54.5927L127.774 54.7884L127.743 54.8902L127.68 55.0154C127.561 55.2611 127.409 55.49 127.23 55.6963C127.017 55.9364 126.762 56.1365 126.479 56.2873C126.201 56.4333 125.898 56.5287 125.587 56.5691C125.108 56.6203 124.624 56.5696 124.166 56.4204C123.518 56.199 122.906 55.8824 122.35 55.4811C121.864 55.1385 121.4 54.766 120.961 54.3658C119.314 52.8384 117.831 51.1424 116.539 49.3056L117.834 48.2059C118.617 48.9299 119.399 49.6617 120.182 50.3544C120.96 51.0469 121.773 51.7 122.616 52.3112C123.013 52.5952 123.426 52.8565 123.853 53.0939C124.197 53.3025 124.568 53.4619 124.957 53.5674C125.09 53.5948 125.184 53.5674 125.14 53.5674C125.048 53.5776 124.962 53.6175 124.894 53.6809C124.87 53.6809 124.87 53.6809 124.894 53.6809L125.019 53.3561L125.293 52.6438C125.972 50.6828 126.502 48.6734 126.878 46.6326C127.086 45.6073 127.23 44.5624 127.387 43.5253C127.543 42.4882 127.653 41.4198 127.743 40.4297L131.148 40.6567Z" fill="#FFC3BD"/>
<path d="M128.777 36.3458C127.317 36.7176 126.296 42.7209 126.296 42.7209L130.315 45.4604C130.315 45.4604 134.17 39.4062 133.054 37.8016C131.88 36.1227 130.906 35.8057 128.777 36.3458Z" fill="#B3B3B3"/>
<path d="M128.777 36.3458C127.317 36.7176 126.296 42.7209 126.296 42.7209L130.315 45.4604C130.315 45.4604 134.17 39.4062 133.054 37.8016C131.88 36.1227 130.906 35.8057 128.777 36.3458Z" fill="#B3B3B3"/>
<path opacity="0.4" d="M128.777 36.3458C127.317 36.7176 126.296 42.7209 126.296 42.7209L130.315 45.4604C130.315 45.4604 134.17 39.4062 133.054 37.8016C131.88 36.1227 130.906 35.8057 128.777 36.3458Z" fill="black"/>
<path opacity="0.3" d="M128.905 37.6892L127.786 43.7356L130.044 45.2697L128.905 37.6892Z" fill="black"/>
<path d="M117.9 47.9585L116.002 44.9373L114.918 48.3694C114.918 48.3694 116.483 50.0131 117.904 49.6217L117.9 47.9585Z" fill="#FFC3BD"/>
<path d="M113.184 43.9397L112.433 46.8592L114.902 48.3698L115.986 44.9376L113.184 43.9397Z" fill="#FFC3BD"/>
<path d="M136.666 137.367H133.128L132.89 129.172H136.431L136.666 137.367Z" fill="#FFC3BD"/>
<path d="M167.892 120.93L165.196 123.223L159.024 117.713L161.72 115.423L167.892 120.93Z" fill="#FFC3BD"/>
<path d="M164.455 122.95L167.073 119.952C167.118 119.9 167.18 119.867 167.248 119.857C167.315 119.848 167.384 119.864 167.441 119.901L170.106 121.627C170.172 121.673 170.227 121.732 170.269 121.8C170.31 121.869 170.336 121.945 170.346 122.025C170.356 122.104 170.348 122.185 170.325 122.261C170.301 122.338 170.261 122.408 170.208 122.468C169.277 123.498 168.776 123.948 167.625 125.263C166.921 126.073 165.97 127.333 164.991 128.448C164.013 129.564 162.855 128.664 163.164 128.108C164.537 125.627 164.209 124.758 164.232 123.537C164.236 123.321 164.315 123.113 164.455 122.95Z" fill="#263238"/>
<path d="M133.006 136.961H136.982C137.051 136.96 137.117 136.985 137.169 137.029C137.221 137.074 137.254 137.136 137.264 137.204L137.718 140.334C137.731 140.417 137.725 140.502 137.701 140.582C137.677 140.662 137.636 140.736 137.58 140.799C137.525 140.861 137.456 140.911 137.379 140.943C137.302 140.976 137.218 140.991 137.135 140.988C135.749 140.964 135.08 140.882 133.331 140.882C132.255 140.882 130.032 140.996 128.545 140.996C127.057 140.996 126.979 139.524 127.601 139.395C130.372 138.796 131.464 137.975 132.399 137.188C132.568 137.042 132.783 136.961 133.006 136.961Z" fill="#263238"/>
<path opacity="0.2" d="M132.893 129.176L133.015 133.399H136.553L136.431 129.176H132.893Z" fill="black"/>
<path opacity="0.2" d="M161.724 115.423L159.024 117.713L162.21 120.554L164.906 118.261L161.724 115.423Z" fill="black"/>
<path d="M128.776 36.3471C128.776 36.3471 127.09 36.9419 130.467 57.7071H144.837C144.599 51.8564 144.591 48.2481 147.385 36.2453C145.373 35.8305 143.334 35.5611 141.284 35.4391C139.111 35.2843 136.929 35.2843 134.756 35.4391C131.954 35.7131 128.776 36.3471 128.776 36.3471Z" fill="#B3B3B3"/>
<path opacity="0.4" d="M128.776 36.3471C128.776 36.3471 127.09 36.9419 130.467 57.7071H144.837C144.599 51.8564 144.591 48.2481 147.385 36.2453C145.373 35.8305 143.334 35.5611 141.284 35.4391C139.111 35.2843 136.929 35.2843 134.756 35.4391C131.954 35.7131 128.776 36.3471 128.776 36.3471Z" fill="black"/>
<path d="M141.284 35.4391C139.11 35.2843 136.929 35.2843 134.756 35.4391C134.404 35.4704 134.044 35.5096 133.687 35.5526C133.54 35.775 133.446 36.0283 133.412 36.293C133.378 36.5576 133.405 36.8265 133.492 37.0789C133.95 38.2177 135.601 38.3508 136.806 38.3508C141.256 38.3508 142.008 35.7522 142.039 35.6426L142.082 35.4861C141.831 35.4704 141.55 35.4509 141.284 35.4391Z" fill="white"/>
<path d="M140.657 28.0935C140.243 30.1912 139.835 34.0382 141.303 35.4392C141.303 35.4392 140.728 37.5721 136.826 37.5721C132.521 37.5721 134.775 35.4431 134.775 35.4431C137.123 34.8835 137.057 33.1459 136.65 31.5296L140.657 28.0935Z" fill="#FFC3BD"/>
<path opacity="0.2" d="M139.003 29.4875L136.631 31.5108C136.733 31.8955 136.801 32.2883 136.834 32.6849C137.727 32.5558 138.956 31.5735 139.053 30.6381C139.108 30.2548 139.091 29.8646 139.003 29.4875Z" fill="black"/>
<path d="M138.196 16.6731C137.832 15.4404 137.527 13.4993 139.718 12.6226C138.861 11.5738 138.654 9.6014 139.718 8.43126C140.783 7.26112 142.379 7.6916 142.379 7.6916C142.379 7.6916 142.849 4.83082 146.328 5.34349C149.807 5.85616 148.257 8.14557 148.257 8.14557C148.257 8.14557 153.005 7.20633 153.322 11.6677C153.639 16.1292 150.915 15.5813 150.915 15.5813C150.915 15.5813 153.032 17.358 151.858 19.3109C150.684 21.2637 147.972 20.5906 147.972 20.5906C147.972 20.5906 146.696 24.0423 143.69 22.0777C140.685 20.1131 138.196 16.6731 138.196 16.6731Z" fill="#263238"/>
<path d="M131.148 19.2752C129.974 20.7936 130.49 22.5117 131.539 23.1887C134.063 24.8011 137.715 18.0385 136.764 17.2284C135.813 16.4183 132.322 17.7528 131.148 19.2752Z" fill="#263238"/>
<path d="M141.75 15.6606C140.09 14.9914 138.407 15.6919 137.883 16.7016C136.603 19.1632 142.415 23.5973 144.098 20.5212C145.096 18.6936 143.46 16.3494 141.75 15.6606Z" fill="#B3B3B3"/>
<path d="M141.05 23.1905C141.171 26.7127 141.296 28.1842 139.703 30.1449C137.312 33.0917 132.972 32.4734 131.806 29.0686C130.757 26.0043 130.737 20.7798 134.021 19.0657C134.743 18.6839 135.55 18.4929 136.366 18.5109C137.183 18.529 137.981 18.7554 138.685 19.1686C139.389 19.5819 139.976 20.1684 140.39 20.8723C140.804 21.5762 141.031 22.3742 141.05 23.1905Z" fill="#FFC3BD"/>
<path d="M140.52 25.0334C138.955 24.4502 138.563 22.6226 138.814 21.9025C138.031 21.8712 136.321 21.5895 135.683 20.6189C134.462 21.4016 131.883 22.1843 131.605 20.8811C131.327 19.5779 135.217 16.2279 138.16 15.9696C141.659 15.6644 145.111 19.1005 144.222 22.3917C143.334 25.683 140.52 25.0334 140.52 25.0334Z" fill="#263238"/>
<path d="M130.482 57.7073C130.482 57.7073 127.692 84.965 127.922 95.7585C128.165 106.982 132.278 132.581 132.278 132.581H137.061C137.061 132.581 136.305 107.636 136.728 96.6155C137.19 84.5971 141.005 57.7073 141.005 57.7073H130.482Z" fill="#263238"/>
<path d="M137.461 132.752H131.849L131.434 130.963L137.723 130.744L137.461 132.752Z" fill="#B3B3B3"/>
<path opacity="0.2" d="M136.666 64.4907C133.143 71.5898 135.957 84.5436 137.206 89.365C137.844 82.125 138.924 73.2765 139.765 66.7801C139.233 63.1092 138.309 61.215 136.666 64.4907Z" fill="black"/>
<path d="M134.264 57.7085C134.264 57.7085 137.52 86.0463 139.977 95.1453C142.897 105.947 161.028 120.485 161.028 120.485L164.707 117.355C164.707 117.355 151.565 101.56 149.331 95.8693C144.568 83.7374 148.646 65.6256 144.838 57.7007L134.264 57.7085Z" fill="#263238"/>
<path d="M165.294 117.194L160.73 121.068L159.024 120.047L164.186 115.245L165.294 117.194Z" fill="#B3B3B3"/>
<path d="M135.839 24.6609C135.867 24.9466 135.738 25.1893 135.554 25.2088C135.37 25.2284 135.194 25.0092 135.162 24.7275C135.131 24.4457 135.264 24.1952 135.452 24.1796C135.64 24.1639 135.812 24.3635 135.839 24.6609Z" fill="#263238"/>
<path d="M132.631 24.9717C132.659 25.2535 132.529 25.5 132.342 25.5196C132.154 25.5391 131.985 25.32 131.95 25.0343C131.915 24.7486 132.052 24.506 132.236 24.4903C132.42 24.4747 132.604 24.686 132.631 24.9717Z" fill="#263238"/>
<path d="M132.326 24.4961L131.626 24.363C131.626 24.363 132.049 24.864 132.326 24.4961Z" fill="#263238"/>
<path d="M133.523 25.3772C133.333 26.0491 133.051 26.6917 132.686 27.287C132.841 27.3763 133.014 27.4309 133.192 27.4471C133.37 27.4634 133.55 27.4408 133.719 27.3809L133.523 25.3772Z" fill="#ED847E"/>
<path d="M135.296 28.3172C135.141 28.3596 134.983 28.3884 134.823 28.4032C134.812 28.4043 134.801 28.4033 134.79 28.4001C134.78 28.3969 134.77 28.3917 134.762 28.3848C134.754 28.3779 134.747 28.3694 134.742 28.3598C134.737 28.3502 134.734 28.3397 134.733 28.3289C134.73 28.3066 134.737 28.2844 134.751 28.2669C134.765 28.2493 134.785 28.2379 134.807 28.235C135.161 28.2089 135.504 28.1001 135.809 27.9172C136.113 27.7344 136.371 27.4826 136.56 27.1822C136.565 27.1719 136.571 27.1626 136.58 27.1551C136.588 27.1475 136.598 27.1419 136.609 27.1385C136.62 27.1352 136.631 27.1342 136.642 27.1357C136.653 27.1371 136.664 27.141 136.674 27.147C136.693 27.1578 136.707 27.1756 136.714 27.1967C136.721 27.2178 136.719 27.2407 136.709 27.2605C136.393 27.783 135.886 28.162 135.296 28.3172Z" fill="#263238"/>
<path d="M141.871 25.6208C141.785 26.2943 141.436 26.9064 140.9 27.3232C140.184 27.8711 139.495 27.3232 139.413 26.4662C139.342 25.6834 139.624 24.5094 140.477 24.2824C140.664 24.2445 140.856 24.2523 141.039 24.3052C141.221 24.3581 141.388 24.4546 141.525 24.5862C141.662 24.7178 141.765 24.8807 141.825 25.0609C141.885 25.2412 141.901 25.4333 141.871 25.6208Z" fill="#FFC3BD"/>
<path d="M136.184 22.6492C136.162 22.6547 136.139 22.6558 136.117 22.6525C136.095 22.6491 136.074 22.6414 136.055 22.6297C135.877 22.5164 135.675 22.4468 135.466 22.4264C135.256 22.406 135.045 22.4354 134.849 22.5123C134.808 22.5303 134.762 22.5323 134.72 22.5178C134.678 22.5033 134.643 22.4733 134.622 22.434C134.603 22.394 134.601 22.3481 134.616 22.3064C134.63 22.2646 134.661 22.2303 134.7 22.2109C134.947 22.1091 135.214 22.0681 135.48 22.0912C135.745 22.1144 136.002 22.2011 136.227 22.344C136.245 22.3552 136.261 22.37 136.274 22.3875C136.287 22.4051 136.296 22.4249 136.301 22.446C136.307 22.4672 136.307 22.4891 136.304 22.5105C136.301 22.5319 136.293 22.5525 136.282 22.571C136.26 22.6084 136.225 22.6364 136.184 22.6492Z" fill="#263238"/>
<path d="M131.058 23.624C131.018 23.6393 130.973 23.6393 130.933 23.624C130.895 23.6018 130.867 23.5659 130.855 23.5237C130.842 23.4815 130.846 23.4362 130.866 23.397C130.986 23.1588 131.161 22.9529 131.377 22.7969C131.593 22.6409 131.843 22.5393 132.107 22.5008C132.129 22.4986 132.151 22.5009 132.172 22.5075C132.193 22.514 132.213 22.5248 132.229 22.539C132.246 22.5532 132.26 22.5707 132.27 22.5903C132.28 22.61 132.286 22.6314 132.287 22.6534C132.29 22.6974 132.276 22.741 132.248 22.7747C132.219 22.8083 132.178 22.8294 132.134 22.8334C131.927 22.8684 131.73 22.9518 131.561 23.0769C131.392 23.202 131.254 23.3653 131.16 23.5535C131.149 23.5717 131.134 23.5874 131.116 23.5995C131.099 23.6117 131.079 23.62 131.058 23.624Z" fill="#263238"/>
<path d="M148.852 40.0603C149.65 42.0124 150.339 44.0075 150.915 46.0363C151.525 48.0827 151.96 50.1775 152.214 52.2979C152.281 52.838 152.3 53.4054 152.324 53.9651V54.2821C152.324 54.3955 152.304 54.513 152.289 54.6147C152.256 54.8103 152.212 55.0037 152.155 55.1939C152.054 55.5194 151.923 55.835 151.764 56.1371C151.221 57.1404 150.556 58.0724 149.784 58.9118C148.355 60.481 146.783 61.9131 145.088 63.1892L143.957 61.933C145.26 60.4106 146.575 58.8491 147.69 57.2368C148.229 56.5051 148.688 55.7179 149.06 54.8887C149.124 54.7282 149.176 54.5634 149.216 54.3955C149.227 54.3387 149.234 54.2811 149.236 54.2234C149.238 54.2065 149.238 54.1894 149.236 54.1725V54.1177C149.185 53.6559 149.15 53.1941 149.064 52.7206C148.727 50.7873 148.258 48.8795 147.659 47.0107C147.06 45.1166 146.391 43.195 145.702 41.3635L148.852 40.0603Z" fill="#FFC3BD"/>
<path d="M147.385 36.2456C148.825 36.6839 150.555 41.6423 150.555 41.6423L144.962 45.6341C144.962 45.6341 142.924 41.4975 143.53 39.6347C144.18 37.6975 145.745 35.7446 147.385 36.2456Z" fill="#B3B3B3"/>
<path opacity="0.4" d="M147.385 36.2456C148.825 36.6839 150.555 41.6423 150.555 41.6423L144.962 45.6341C144.962 45.6341 142.924 41.4975 143.53 39.6347C144.18 37.6975 145.745 35.7446 147.385 36.2456Z" fill="black"/>
<path d="M163.489 124.656C163.417 124.654 163.346 124.636 163.281 124.603C163.217 124.57 163.161 124.522 163.117 124.464C163.082 124.428 163.057 124.382 163.044 124.333C163.032 124.284 163.033 124.232 163.047 124.183C163.18 123.752 164.409 123.4 164.55 123.361C164.565 123.355 164.582 123.355 164.597 123.36C164.613 123.365 164.626 123.375 164.636 123.388C164.645 123.402 164.649 123.417 164.649 123.433C164.649 123.449 164.645 123.465 164.636 123.478C164.417 123.897 163.982 124.601 163.536 124.652L163.489 124.656ZM164.397 123.58C163.912 123.737 163.278 124.007 163.223 124.234C163.217 124.255 163.217 124.278 163.224 124.299C163.23 124.321 163.242 124.34 163.258 124.355C163.29 124.4 163.332 124.436 163.381 124.459C163.431 124.482 163.486 124.492 163.54 124.488C163.767 124.461 164.084 124.124 164.397 123.58Z" fill="#B3B3B3"/>
<path d="M164.01 123.596C163.644 123.633 163.277 123.529 162.984 123.306C162.943 123.254 162.921 123.19 162.921 123.124C162.921 123.058 162.943 122.994 162.984 122.942C163.019 122.888 163.066 122.842 163.121 122.808C163.175 122.774 163.237 122.753 163.301 122.746C163.81 122.684 164.581 123.349 164.612 123.376C164.624 123.386 164.632 123.398 164.637 123.412C164.642 123.425 164.643 123.44 164.64 123.455C164.638 123.47 164.632 123.484 164.622 123.496C164.613 123.508 164.6 123.517 164.585 123.521C164.398 123.574 164.204 123.6 164.01 123.596ZM163.387 122.911H163.333C163.293 122.915 163.254 122.928 163.22 122.949C163.185 122.97 163.156 122.999 163.133 123.032C163.074 123.122 163.094 123.169 163.133 123.2C163.286 123.4 163.982 123.474 164.405 123.396C164.116 123.146 163.764 122.978 163.387 122.911Z" fill="#B3B3B3"/>
<path d="M131.676 137.579C131.373 137.606 131.071 137.529 130.819 137.359C130.765 137.31 130.723 137.25 130.697 137.182C130.67 137.114 130.66 137.041 130.666 136.968C130.669 136.922 130.684 136.877 130.71 136.838C130.735 136.799 130.77 136.767 130.811 136.745C131.245 136.506 132.654 137.226 132.815 137.312C132.83 137.321 132.842 137.334 132.849 137.349C132.857 137.364 132.86 137.382 132.858 137.399C132.855 137.416 132.848 137.432 132.836 137.445C132.824 137.457 132.808 137.466 132.791 137.469C132.423 137.54 132.05 137.576 131.676 137.579ZM131.046 136.847C130.992 136.843 130.938 136.854 130.889 136.878C130.872 136.886 130.858 136.899 130.849 136.915C130.839 136.931 130.834 136.949 130.834 136.968C130.828 137.017 130.833 137.067 130.85 137.113C130.868 137.16 130.896 137.201 130.932 137.234C131.147 137.43 131.715 137.461 132.498 137.332C132.045 137.089 131.554 136.925 131.046 136.847Z" fill="#B3B3B3"/>
<path d="M132.776 137.466H132.741C132.318 137.274 131.485 136.511 131.567 136.111C131.567 136.018 131.649 135.896 131.88 135.873C131.963 135.864 132.048 135.872 132.128 135.897C132.208 135.922 132.282 135.963 132.346 136.018C132.788 136.389 132.87 137.34 132.874 137.383C132.875 137.398 132.873 137.412 132.866 137.425C132.86 137.438 132.851 137.45 132.839 137.458C132.83 137.464 132.819 137.467 132.808 137.469C132.798 137.47 132.787 137.469 132.776 137.466ZM131.931 136.029H131.884C131.727 136.029 131.72 136.108 131.716 136.127C131.677 136.366 132.244 136.969 132.674 137.227C132.639 136.825 132.481 136.443 132.221 136.135C132.141 136.062 132.038 136.02 131.931 136.018V136.029Z" fill="#B3B3B3"/>
<path d="M145.052 56.8461L145.42 58.1336C145.47 58.2315 145.353 58.3332 145.185 58.3332H130.396C130.266 58.3332 130.157 58.2706 130.149 58.1884L130.02 56.9048C130.02 56.8148 130.122 56.7404 130.266 56.7404H144.821C144.865 56.7367 144.91 56.7444 144.95 56.7629C144.991 56.7814 145.026 56.8101 145.052 56.8461Z" fill="#B3B3B3"/>
<path opacity="0.3" d="M145.052 56.8461L145.42 58.1336C145.47 58.2315 145.353 58.3332 145.185 58.3332H130.396C130.266 58.3332 130.157 58.2706 130.149 58.1884L130.02 56.9048C130.02 56.8148 130.122 56.7404 130.266 56.7404H144.821C144.865 56.7367 144.91 56.7444 144.95 56.7629C144.991 56.7814 145.026 56.8101 145.052 56.8461Z" fill="white"/>
<path d="M143.099 58.491H143.491C143.565 58.491 143.624 58.4519 143.62 58.401L143.436 56.7299C143.436 56.6829 143.365 56.6399 143.287 56.6399H142.896C142.818 56.6399 142.759 56.6829 142.767 56.7299L142.947 58.401C142.955 58.4519 143.005 58.491 143.099 58.491Z" fill="#263238"/>
<path d="M131.492 58.491H131.883C131.961 58.491 132.02 58.4519 132.016 58.401L131.832 56.7299C131.832 56.6829 131.758 56.6399 131.683 56.6399H131.292C131.214 56.6399 131.155 56.6829 131.159 56.7299L131.343 58.401C131.347 58.4519 131.413 58.491 131.492 58.491Z" fill="#263238"/>
<path d="M137.296 58.491H137.687C137.765 58.491 137.824 58.4519 137.82 58.401L137.636 56.7299C137.636 56.6829 137.566 56.6399 137.488 56.6399H137.096C137.018 56.6399 136.959 56.6829 136.967 56.7299L137.135 58.4127C137.135 58.4519 137.218 58.491 137.296 58.491Z" fill="#263238"/>
<path d="M135.538 24.188L134.838 24.0549C134.838 24.0549 135.237 24.5559 135.538 24.188Z" fill="#263238"/>
<path opacity="0.2" d="M122.585 74.0245C115.955 76.6003 108.709 77.1523 101.765 75.6105C94.8214 74.0687 88.4905 70.5024 83.5733 65.3626C78.656 60.2228 75.3733 53.7404 74.1402 46.735C72.9071 39.7295 73.7791 32.5158 76.6457 26.0059C79.5124 19.496 84.245 13.9823 90.2452 10.1621C96.2454 6.34184 103.244 4.38663 110.355 4.54368C117.466 4.70073 124.372 6.96299 130.197 11.0444C136.023 15.1258 140.508 20.843 143.084 27.4731C144.795 31.8756 145.623 36.5722 145.519 41.2945C145.415 46.0168 144.381 50.6723 142.478 54.9952C140.574 59.3181 137.838 63.2236 134.424 66.4887C131.011 69.7538 126.988 72.3145 122.585 74.0245Z" fill="#B3B3B3"/>
<path opacity="0.1" d="M116.076 5.12888L87.8677 69.1933C87.4333 68.8646 87.0028 68.5241 86.5802 68.1797C83.8537 65.9242 81.4794 63.2743 79.5358 60.3174L103.901 4.98017C107.938 4.33 112.057 4.38031 116.076 5.12888Z" fill="white"/>
<path opacity="0.1" d="M136.13 16.2447L109.608 76.4778C104.099 76.4837 98.6623 75.2223 93.7188 72.7912L122.679 7.0166C127.809 9.02309 132.411 12.1801 136.13 16.2447Z" fill="white"/>
<path d="M79.951 16.2704C84.7433 10.4146 91.1645 6.11147 98.4025 3.90505C105.64 1.69862 113.37 1.68805 120.614 3.87467C127.858 6.0613 134.291 10.3469 139.099 16.1896C143.908 22.0322 146.876 29.1695 147.628 36.6988C148.38 44.2282 146.882 51.8115 143.324 58.4897C139.766 65.1679 134.308 70.6412 127.64 74.2173C120.971 77.7935 113.392 79.3119 105.861 78.5806C98.3294 77.8493 91.184 74.9011 85.3281 70.1088C77.4765 63.6819 72.4992 54.3995 71.4908 44.3031C70.4824 34.2068 73.5255 24.1233 79.951 16.2704ZM136.744 62.7475C141.143 57.3702 143.849 50.8093 144.519 43.8943C145.189 36.9793 143.794 30.0209 140.51 23.8988C137.226 17.7767 132.2 12.766 126.068 9.50019C119.936 6.2344 112.973 4.86021 106.06 5.55139C99.1475 6.24258 92.5948 8.96809 87.2308 13.3833C81.8668 17.7985 77.9325 23.7051 75.9254 30.3562C73.9182 37.0074 73.9283 44.1043 75.9545 50.7497C77.9807 57.395 81.9318 63.2904 87.3084 67.6902C90.8788 70.612 94.9897 72.8019 99.4065 74.1348C103.823 75.4677 108.459 75.9174 113.05 75.4584C117.641 74.9995 122.096 73.6407 126.161 71.4597C130.227 69.2787 133.823 66.3183 136.744 62.7475Z" fill="#B3B3B3"/>
<path d="M140.121 62.6155C143.89 64.8658 147.475 67.3391 150.997 69.8907C154.519 72.4424 157.951 75.0996 161.328 77.8274C164.706 80.5551 168.021 83.3611 171.218 86.308C172.82 87.7795 174.385 89.2901 175.914 90.8398C177.448 92.4052 178.955 93.9707 180.376 95.6691C180.704 96.0624 180.885 96.5577 180.887 97.0699C180.89 97.5821 180.714 98.0792 180.39 98.4757C180.065 98.8722 179.613 99.1434 179.111 99.2426C178.608 99.3417 178.087 99.2627 177.636 99.0191C175.679 97.9625 173.848 96.7962 172.02 95.6026C170.193 94.409 168.408 93.1645 166.647 91.8848C163.125 89.3331 159.716 86.6445 156.378 83.8699C153.04 81.0952 149.752 78.2579 146.555 75.3071C143.358 72.3563 140.223 69.335 137.272 66.0868C136.904 65.685 136.692 65.1639 136.677 64.619C136.662 64.0741 136.843 63.5419 137.188 63.12C137.534 62.6982 138.02 62.415 138.557 62.3223C139.094 62.2296 139.647 62.3337 140.113 62.6155H140.121Z" fill="#B3B3B3"/>
<path d="M144.333 61.543L140.552 62.1183L143.256 64.4899C143.256 64.4899 145.393 63.7071 145.605 62.2591L144.333 61.543Z" fill="#FFC3BD"/>
<path d="M138.509 64.2906L140.884 66.1535L143.784 64.2593L140.552 62.1265L138.509 64.2906Z" fill="#FFC3BD"/>
<path d="M120.638 68.41C120.983 67.4674 121.606 66.6514 122.424 66.0695C123.242 65.4876 124.217 65.1671 125.221 65.15H156.548C157.09 65.1298 157.629 65.2286 158.128 65.4395C158.627 65.6504 159.074 65.9682 159.436 66.3705C159.799 66.7728 160.069 67.2498 160.227 67.7679C160.386 68.286 160.428 68.8325 160.352 69.3688L152.259 137.272C152.087 138.428 151.51 139.486 150.63 140.255C149.751 141.024 148.626 141.455 147.457 141.472H48.0538C47.5143 141.492 46.9768 141.394 46.4793 141.185C45.9817 140.975 45.5361 140.659 45.1738 140.259C44.8116 139.858 44.5415 139.384 44.3825 138.868C44.2235 138.352 44.1796 137.807 44.2538 137.272L51.0398 80.221C51.2116 79.0651 51.7889 78.0079 52.6687 77.2385C53.5484 76.4692 54.6731 76.0379 55.8417 76.0218H109.934C112.278 75.9818 114.555 75.2333 116.466 73.8747C118.376 72.5161 119.831 70.611 120.638 68.41Z" fill="#B3B3B3"/>
<path d="M46.0412 138.346H149.91L155.827 68.4583H51.9624L46.0412 138.346Z" fill="#F0F0F0"/>
<path d="M46.0412 138.346H149.91L154.191 68.4583H51.9624L46.0412 138.346Z" fill="#E0E0E0"/>
<path d="M46.0412 138.346H149.91L153.479 66.239H49.6143L46.0412 138.346Z" fill="#F0F0F0"/>
<path d="M46.0412 138.346H149.91L151.323 66.239H49.6143L46.0412 138.346Z" fill="#E0E0E0"/>
<path d="M46.0412 138.345H149.91L150.528 64.282H46.6635L46.0412 138.345Z" fill="#F0F0F0"/>
<path d="M46.0419 138.345H149.911L147.778 65.6824H44.5821L46.0419 138.345Z" fill="#E0E0E0"/>
<path d="M46.0415 138.346H149.91L146.827 66.239H42.9616L46.0415 138.346Z" fill="#F0F0F0"/>
<path d="M46.042 138.345H149.911L144.999 67.3267H41.1344L46.042 138.345Z" fill="#E0E0E0"/>
<path d="M46.0416 138.346H149.911L144.216 67.9333H40.3514L46.0416 138.346Z" fill="#F0F0F0"/>
<path d="M98.0564 72.8201C98.0622 72.3661 98.1593 71.9178 98.3419 71.5021C98.5245 71.0863 98.7889 70.7115 99.1194 70.4001C99.4499 70.0886 99.8396 69.8468 100.265 69.6891C100.691 69.5313 101.144 69.4609 101.598 69.4819H132.926C134.139 69.5285 135.302 69.9765 136.233 70.7556C137.163 71.5348 137.809 72.601 138.068 73.7868L150.447 137.186C150.909 139.561 149.359 141.491 146.983 141.491H47.5797C45.2003 141.491 42.8835 139.561 42.4334 137.186L32.223 84.9208C31.7612 82.5453 33.311 80.6159 35.6865 80.6159H89.7832C94.4794 80.6159 97.8959 77.3833 98.0564 72.8201Z" fill="#B3B3B3"/>
<path opacity="0.2" d="M98.0564 72.8201C98.0622 72.3661 98.1593 71.9178 98.3419 71.5021C98.5245 71.0863 98.7889 70.7115 99.1194 70.4001C99.4499 70.0886 99.8396 69.8468 100.265 69.6891C100.691 69.5313 101.144 69.4609 101.598 69.4819H132.926C134.139 69.5285 135.302 69.9765 136.233 70.7556C137.163 71.5348 137.809 72.601 138.068 73.7868L150.447 137.186C150.909 139.561 149.359 141.491 146.983 141.491H47.5797C45.2003 141.491 42.8835 139.561 42.4334 137.186L32.223 84.9208C31.7612 82.5453 33.311 80.6159 35.6865 80.6159H89.7832C94.4794 80.6159 97.8959 77.3833 98.0564 72.8201Z" fill="black"/>
</svg>
